<svg id="visual" viewBox="0 0 900 600" width="900" height="600" xmlns="http://www.w3.org/2000/svg" xmlns:xlink="http://www.w3.org/1999/xlink" version="1.1"><path d="M0 417L150 374L300 437L450 437L600 413L750 386L900 434L900 601L750 601L600 601L450 601L300 601L150 601L0 601Z" fill="#f5730a"></path><path d="M0 453L150 470L300 502L450 452L600 486L750 433L900 491L900 601L750 601L600 601L450 601L300 601L150 601L0 601Z" fill="#be4407"></path><path d="M0 495L150 519L300 519L450 517L600 543L750 519L900 532L900 601L750 601L600 601L450 601L300 601L150 601L0 601Z" fill="#871400"></path></svg>